<svg width="20" height="20" viewBox="0 0 20 20" fill="none" xmlns="
http://www.w3.org/2000/svg">
<path d="M8.40527 8.98875C7.50039 8.98875 6.61582 8.72516 5.86344 8.23131C5.11106 7.73746 4.52464 7.03554 4.17836 6.2143C3.83208 5.39306 3.74147 4.48939 3.91801 3.61757C4.09454 2.74574 4.53028 1.94492 5.17013 1.31637C5.80998 0.687824 6.6252 0.259777 7.5127 0.0863601C8.40019 -0.0870562 9.32011 0.00194734 10.1561 0.342116C10.9921 0.682284 11.7067 1.25834 12.2094 1.99744C12.7121 2.73653 12.9804 3.60547 12.9804 4.49438C12.9804 5.68636 12.4984 6.82952 11.6404 7.67238C10.7824 8.51524 9.61868 8.98875 8.40527 8.98875ZM8.40527 1.33547C7.75892 1.33547 7.12709 1.52375 6.58968 1.8765C6.05226 2.22925 5.63339 2.73062 5.38605 3.31722C5.1387 3.90382 5.07399 4.5493 5.20008 5.17203C5.32618 5.79476 5.63742 6.36678 6.09446 6.81574C6.55149 7.26471 7.13379 7.57045 7.76772 7.69432C8.40164 7.81819 9.05873 7.75462 9.65587 7.51164C10.253 7.26866 10.7634 6.85719 11.1225 6.32927C11.4816 5.80134 11.6733 5.18067 11.6733 4.54574C11.6733 4.12416 11.5887 3.70671 11.4245 3.31722C11.2603 2.92774 11.0195 2.57384 10.7161 2.27574C10.4126 1.97764 10.0524 1.74117 9.65587 1.57984C9.25938 1.41851 8.83443 1.33547 8.40527 1.33547ZM12.0458 9.76563C8.50881 8.98379 4.80855 9.36036 1.50983 10.8379C1.05616 11.0507 0.673397 11.3858 0.406101 11.8041C0.138804 12.2224 -0.00202158 12.7067 2.19277e-05 13.2006V17.0208C2.19259e-05 17.1052 0.0169278 17.1886 0.0497741 17.2665C0.0826204 17.3444 0.130764 17.4152 0.191456 17.4748C0.252148 17.5345 0.3242 17.5818 0.403498 17.614C0.482796 17.6463 0.567787 17.6629 0.653618 17.6629C0.73945 17.6629 0.824441 17.6463 0.903739 17.614C0.983037 17.5818 1.05509 17.5345 1.11578 17.4748C1.17647 17.4152 1.22462 17.3444 1.25746 17.2665C1.29031 17.1886 1.30721 17.1052 1.30721 17.0208V13.2006C1.30152 12.9507 1.37023 12.7045 1.50491 12.4924C1.63959 12.2802 1.83438 12.1113 2.06539 12.0064C4.05249 11.1051 6.21658 10.6427 8.40527 10.6517C9.63162 10.6501 10.8538 10.7924 12.0458 11.0754V9.76563ZM12.1373 15.8716H16.1504V16.7704H12.1373V15.8716Z" fill="#fff"/>
<path d="M19.3472 12.0585H15.9682V13.3426H18.6937V18.7166H9.43219V13.3426H13.5498V13.6123C13.5498 13.7826 13.6187 13.9459 13.7413 14.0663C13.8639 14.1867 14.0301 14.2544 14.2034 14.2544C14.3768 14.2544 14.543 14.1867 14.6656 14.0663C14.7882 13.9459 14.857 13.7826 14.857 13.6123V11.1147C14.857 10.9444 14.7882 10.7811 14.6656 10.6607C14.543 10.5403 14.3768 10.4727 14.2034 10.4727C14.0301 10.4727 13.8639 10.5403 13.7413 10.6607C13.6187 10.7811 13.5498 10.9444 13.5498 11.1147V12.0585H8.7786C8.60525 12.0585 8.43901 12.1262 8.31643 12.2466C8.19386 12.367 8.125 12.5303 8.125 12.7006V19.3587C8.125 19.529 8.19386 19.6923 8.31643 19.8127C8.43901 19.9331 8.60525 20.0007 8.7786 20.0007H19.3472C19.5206 20.0007 19.6868 19.9331 19.8094 19.8127C19.932 19.6923 20.0008 19.529 20.0008 19.3587V12.7006C20.0008 12.5303 19.932 12.367 19.8094 12.2466C19.6868 12.1262 19.5206 12.0585 19.3472 12.0585Z" fill="#fff"/>
</svg>