<svg width="25" height="20" viewBox="0 0 22 20" fill="none" xmlns="
http://www.w3.org/2000/svg">
<mask id="path-1-inside-1_1621_7491" fill="white"> <path d="M21.5676 3.26566C21.5073 2.51252 21.1504 1.80446 20.5626 1.27152C19.9747 0.738592 19.1952 0.41658 18.3674 0.364636L12.7548 0.00620831C12.2645 -0.0216948 11.7733 0.0446734 11.3131 0.200992C10.853 0.357311 10.4341 0.600075 10.0839 0.913479L1.00644 9.19093C0.362004 9.77777 0 10.5735 0 11.4031C0 12.2327 0.362004 13.0284 1.00644 13.6153L7.00061 19.0813C7.32064 19.3726 7.70058 19.6036 8.11873 19.7612C8.53688 19.9189 8.98506 20 9.43767 20C9.89028 20 10.3385 19.9189 10.7566 19.7612C11.1748 19.6036 11.5547 19.3726 11.8747 19.0813L20.9583 10.8039C21.3068 10.4878 21.5763 10.1071 21.7483 9.68759C21.9204 9.26812 21.991 8.81982 21.9553 8.37326L21.5676 3.26566ZM10.9947 18.2883C10.5795 18.6645 10.0174 18.8757 9.43151 18.8757C8.84561 18.8757 8.28356 18.6645 7.86835 18.2883L1.87418 12.8335C1.6666 12.6467 1.5018 12.4243 1.38932 12.1791C1.27685 11.934 1.21894 11.671 1.21894 11.4053C1.21894 11.1397 1.27685 10.8767 1.38932 10.6315C1.5018 10.3864 1.6666 10.164 1.87418 9.97723L3.31426 8.66673L12.4471 16.9778L10.9947 18.2883ZM20.0782 10.022L13.3087 16.1825L4.18815 7.87146L10.9578 1.71098C11.1622 1.52288 11.4057 1.37355 11.674 1.27165C11.9423 1.16975 12.2302 1.1173 12.5209 1.11734C12.5701 1.11734 12.6194 1.12854 12.6686 1.12854L18.2812 1.48696C18.8121 1.52056 19.312 1.72694 19.6894 2.06835C20.0668 2.40976 20.2966 2.8634 20.3367 3.34631L20.7306 8.45391C20.75 8.7416 20.7025 9.02977 20.5911 9.2996C20.4798 9.56943 20.3071 9.81484 20.0844 10.0198L20.0782 10.022Z"/> </mask> <path d="M21.5676 3.26566C21.5073 2.51252 21.1504 1.80446 20.5626 1.27152C19.9747 0.738592 19.1952 0.41658 18.3674 0.364636L12.7548 0.00620831C12.2645 -0.0216948 11.7733 0.0446734 11.3131 0.200992C10.853 0.357311 10.4341 0.600075 10.0839 0.913479L1.00644 9.19093C0.362004 9.77777 0 10.5735 0 11.4031C0 12.2327 0.362004 13.0284 1.00644 13.6153L7.00061 19.0813C7.32064 19.3726 7.70058 19.6036 8.11873 19.7612C8.53688 19.9189 8.98506 20 9.43767 20C9.89028 20 10.3385 19.9189 10.7566 19.7612C11.1748 19.6036 11.5547 19.3726 11.8747 19.0813L20.9583 10.8039C21.3068 10.4878 21.5763 10.1071 21.7483 9.68759C21.9204 9.26812 21.991 8.81982 21.9553 8.37326L21.5676 3.26566ZM10.9947 18.2883C10.5795 18.6645 10.0174 18.8757 9.43151 18.8757C8.84561 18.8757 8.28356 18.6645 7.86835 18.2883L1.87418 12.8335C1.6666 12.6467 1.5018 12.4243 1.38932 12.1791C1.27685 11.934 1.21894 11.671 1.21894 11.4053C1.21894 11.1397 1.27685 10.8767 1.38932 10.6315C1.5018 10.3864 1.6666 10.164 1.87418 9.97723L3.31426 8.66673L12.4471 16.9778L10.9947 18.2883ZM20.0782 10.022L13.3087 16.1825L4.18815 7.87146L10.9578 1.71098C11.1622 1.52288 11.4057 1.37355 11.674 1.27165C11.9423 1.16975 12.2302 1.1173 12.5209 1.11734C12.5701 1.11734 12.6194 1.12854 12.6686 1.12854L18.2812 1.48696C18.8121 1.52056 19.312 1.72694 19.6894 2.06835C20.0668 2.40976 20.2966 2.8634 20.3367 3.34631L20.7306 8.45391C20.75 8.7416 20.7025 9.02977 20.5911 9.2996C20.4798 9.56943 20.3071 9.81484 20.0844 10.0198L20.0782 10.022Z" fill="white"/> <path d="M21.5676 3.26566L23.5618 3.11428L23.5612 3.10613L21.5676 3.26566ZM18.3674 0.364636L18.2399 2.36057L18.2421 2.36071L18.3674 0.364636ZM12.7548 0.00620831L12.8822 -1.98977L12.8684 -1.99056L12.7548 0.00620831ZM10.0839 0.913479L8.7502 -0.576946L8.7432 -0.570682L8.73626 -0.564353L10.0839 0.913479ZM1.00644 9.19093L2.35303 10.6697L2.35403 10.6688L1.00644 9.19093ZM0 11.4031H2H0ZM1.00644 13.6153L2.35405 12.1375L2.35303 12.1365L1.00644 13.6153ZM7.00061 19.0813L5.653 20.5591L5.65444 20.5604L7.00061 19.0813ZM11.8747 19.0813L13.2209 20.5604L13.2218 20.5596L11.8747 19.0813ZM20.9583 10.8039L19.6147 9.32236L19.6112 9.32557L20.9583 10.8039ZM21.9553 8.37326L19.961 8.52465L19.9616 8.5326L21.9553 8.37326ZM10.9947 18.2883L9.65485 16.8034L9.65181 16.8062L10.9947 18.2883ZM9.43151 18.8757V20.8757V18.8757ZM7.86835 18.2883L6.52225 19.7675L6.52548 19.7704L7.86835 18.2883ZM1.87418 12.8335L3.2203 11.3542L3.21192 11.3467L1.87418 12.8335ZM1.21894 11.4053H3.21894H1.21894ZM1.87418 9.97723L3.21195 11.464L3.22028 11.4564L1.87418 9.97723ZM3.31426 8.66673L4.66036 7.18753L3.31426 5.96255L1.96816 7.18753L3.31426 8.66673ZM12.4471 16.9778L13.7869 18.4627L15.4255 16.9841L13.7932 15.4986L12.4471 16.9778ZM20.0782 10.022L19.394 8.14271L19.0237 8.27756L18.7321 8.54284L20.0782 10.022ZM13.3087 16.1825L11.9616 17.6608L13.3077 18.8875L14.6547 17.6617L13.3087 16.1825ZM4.18815 7.87146L2.84205 6.39227L1.2177 7.87047L2.84106 9.34976L4.18815 7.87146ZM10.9578 1.71098L12.3039 3.1902L12.3119 3.18286L10.9578 1.71098ZM12.5209 1.11734L12.5207 3.11734H12.5209V1.11734ZM12.6686 1.12854L12.7961 -0.867398L12.7324 -0.871464H12.6686V1.12854ZM18.2812 1.48696L18.1538 3.4829L18.1549 3.48297L18.2812 1.48696ZM20.3367 3.34631L22.3308 3.19254L22.3299 3.18077L20.3367 3.34631ZM20.7306 8.45391L22.7261 8.31937L22.7254 8.30975L22.7247 8.30014L20.7306 8.45391ZM20.0844 10.0198L20.7686 11.8991L21.1445 11.7623L21.4388 11.4914L20.0844 10.0198ZM23.5612 3.10613C23.4581 1.81812 22.85 0.645667 21.9058 -0.210249L19.2193 2.7533C19.4509 2.96325 19.5565 3.20692 19.5739 3.4252L23.5612 3.10613ZM21.9058 -0.210249C20.9659 -1.0623 19.7509 -1.55249 18.4926 -1.63144L18.2421 2.36071C18.6395 2.38565 18.9834 2.53949 19.2193 2.7533L21.9058 -0.210249ZM18.4948 -1.6313L12.8822 -1.98973L12.6273 2.00214L18.2399 2.36057L18.4948 -1.6313ZM12.8684 -1.99056C12.1243 -2.03291 11.376 -1.93259 10.6699 -1.69273L11.9564 2.09472C12.1707 2.02193 12.4047 1.98952 12.6411 2.00298L12.8684 -1.99056ZM10.6699 -1.69273C9.96364 -1.45284 9.30796 -1.07603 8.7502 -0.576946L11.4175 2.4039C11.5602 2.27618 11.7423 2.16746 11.9564 2.09472L10.6699 -1.69273ZM8.73626 -0.564353L-0.341155 7.7131L2.35403 10.6688L11.4315 2.39131L8.73626 -0.564353ZM-0.340149 7.71218C-1.37701 8.65637 -2 9.97918 -2 11.4031H2C2 11.1677 2.10101 10.8992 2.35303 10.6697L-0.340149 7.71218ZM-2 11.4031C-2 12.827 -1.377 14.1498 -0.340149 15.094L2.35303 12.1365C2.10101 11.907 2 11.6385 2 11.4031H-2ZM-0.341169 15.0931L5.653 20.5591L8.34822 17.6035L2.35405 12.1375L-0.341169 15.0931ZM5.65444 20.5604C6.16746 21.0273 6.76654 21.3889 7.41325 21.6327L8.82421 17.8898C8.63461 17.8183 8.47382 17.7178 8.34679 17.6022L5.65444 20.5604ZM7.41325 21.6327C8.05984 21.8764 8.74724 22 9.43767 22V18C9.22288 18 9.01393 17.9613 8.82421 17.8898L7.41325 21.6327ZM9.43767 22C10.1281 22 10.8155 21.8764 11.4621 21.6327L10.0511 17.8898C9.86141 17.9613 9.65246 18 9.43767 18V22ZM11.4621 21.6327C12.1088 21.3889 12.7079 21.0273 13.2209 20.5604L10.5286 17.6022C10.4015 17.7178 10.2407 17.8183 10.0511 17.8898L11.4621 21.6327ZM13.2218 20.5596L22.3054 12.2821L19.6112 9.32557L10.5276 17.603L13.2218 20.5596ZM22.3019 12.2853C22.8624 11.777 23.3093 11.1521 23.5987 10.4466L19.8979 8.9286C19.8432 9.06201 19.7511 9.19865 19.6147 9.32237L22.3019 12.2853ZM23.5987 10.4466C23.8885 9.74015 24.0099 8.9775 23.9489 8.21393L19.9616 8.5326C19.972 8.66214 19.9523 8.7961 19.8979 8.9286L23.5987 10.4466ZM23.9495 8.22188L23.5618 3.11428L19.5733 3.41705L19.961 8.52465L23.9495 8.22188ZM9.65181 16.8062C9.62251 16.8327 9.54596 16.8757 9.43151 16.8757V20.8757C10.4889 20.8757 11.5364 20.4962 12.3375 19.7704L9.65181 16.8062ZM9.43151 16.8757C9.31707 16.8757 9.24052 16.8327 9.21122 16.8062L6.52548 19.7704C7.32659 20.4962 8.37414 20.8757 9.43151 20.8757V16.8757ZM9.21445 16.8091L3.22028 11.3543L0.52808 14.3126L6.52225 19.7675L9.21445 16.8091ZM3.21192 11.3467C3.19988 11.3359 3.20174 11.3334 3.20712 11.3451L-0.428472 13.0132C-0.198146 13.5152 0.133312 13.9575 0.536434 14.3202L3.21192 11.3467ZM3.20712 11.3451C3.21281 11.3575 3.21894 11.3786 3.21894 11.4053H-0.781064C-0.781064 11.9634 -0.659106 12.5105 -0.428472 13.0132L3.20712 11.3451ZM3.21894 11.4053C3.21894 11.4321 3.21281 11.4532 3.20712 11.4656L-0.428472 9.79751C-0.659106 10.3002 -0.781064 10.8473 -0.781064 11.4053H3.21894ZM3.20712 11.4656C3.20175 11.4773 3.19989 11.4748 3.21192 11.464L0.536434 8.49047C0.13331 8.8532 -0.198148 9.29551 -0.428472 9.79751L3.20712 11.4656ZM3.22028 11.4564L4.66036 10.1459L1.96816 7.18753L0.528081 8.49803L3.22028 11.4564ZM1.96816 10.1459L11.101 18.457L13.7932 15.4986L4.66036 7.18753L1.96816 10.1459ZM11.1072 15.4929L9.65485 16.8034L12.3345 19.7732L13.7869 18.4627L11.1072 15.4929ZM18.7321 8.54284L11.9626 14.7033L14.6547 17.6617L21.4243 11.5012L18.7321 8.54284ZM14.6557 14.7042L5.53524 6.39317L2.84106 9.34976L11.9616 17.6608L14.6557 14.7042ZM5.53425 9.35066L12.3039 3.19018L9.61165 0.231787L2.84205 6.39227L5.53425 9.35066ZM12.3119 3.18286C12.3227 3.17287 12.3457 3.1559 12.384 3.14136L10.9639 -0.59806C10.4656 -0.408802 10.0017 -0.127116 9.60365 0.239107L12.3119 3.18286ZM12.384 3.14136C12.4225 3.12677 12.4694 3.11733 12.5207 3.11734L12.5212 -0.882665C11.9909 -0.882733 11.4621 -0.78727 10.9639 -0.59806L12.384 3.14136ZM12.5209 3.11734C12.4589 3.11734 12.4114 3.11386 12.3878 3.11185C12.3674 3.1101 12.3517 3.10818 12.3687 3.11012C12.3763 3.11098 12.4166 3.1157 12.4617 3.11955C12.5099 3.12366 12.582 3.12854 12.6686 3.12854V-0.871464C12.7306 -0.871464 12.7781 -0.867985 12.8017 -0.865975C12.8221 -0.864231 12.8378 -0.862312 12.8208 -0.864249C12.8132 -0.865112 12.7729 -0.869831 12.7278 -0.873676C12.6797 -0.877785 12.6075 -0.882665 12.5209 -0.882665V3.11734ZM12.5412 3.12447L18.1538 3.4829L18.4087 -0.50897L12.7961 -0.867398L12.5412 3.12447ZM18.1549 3.48297C18.2564 3.48939 18.3218 3.52808 18.3477 3.55156L21.0311 0.585139C20.3022 -0.0742032 19.3679 -0.448265 18.4076 -0.509042L18.1549 3.48297ZM18.3477 3.55156C18.3592 3.56191 18.3592 3.56553 18.3554 3.55799C18.3514 3.55015 18.3454 3.53423 18.3436 3.51185L22.3299 3.18077C22.2455 2.16452 21.7642 1.2483 21.0311 0.585139L18.3477 3.55156ZM18.3426 3.50008L18.7365 8.60768L22.7247 8.30014L22.3308 3.19254L18.3426 3.50008ZM18.7351 8.58845C18.7336 8.5658 18.738 8.54715 18.7423 8.53667L22.4399 10.0625C22.6669 9.51239 22.7664 8.91739 22.7261 8.31937L18.7351 8.58845ZM18.7423 8.53667C18.7463 8.52706 18.7464 8.53314 18.73 8.54818L21.4388 11.4914C21.8678 11.0965 22.2132 10.6118 22.4399 10.0625L18.7423 8.53667ZM19.4002 8.14047L19.394 8.14271L20.7625 11.9014L20.7686 11.8991L19.4002 8.14047Z" fill="white" mask="url(#path-1-inside-1_1621_7491)"/> <mask id="path-3-inside-2_1621_7491" fill="white"> <path d="M17.1313 5.36463C17.7173 5.36463 18.1923 4.93235 18.1923 4.39911C18.1923 3.86587 17.7173 3.43359 17.1313 3.43359C16.5453 3.43359 16.0703 3.86587 16.0703 4.39911C16.0703 4.93235 16.5453 5.36463 17.1313 5.36463Z"/> </mask> <path d="M17.1313 5.36463C17.7173 5.36463 18.1923 4.93235 18.1923 4.39911C18.1923 3.86587 17.7173 3.43359 17.1313 3.43359C16.5453 3.43359 16.0703 3.86587 16.0703 4.39911C16.0703 4.93235 16.5453 5.36463 17.1313 5.36463Z" fill="white"/> <path d="M16.1923 4.39911C16.1923 3.6545 16.7943 3.36463 17.1313 3.36463V7.36463C18.6402 7.36463 20.1923 6.2102 20.1923 4.39911H16.1923ZM17.1313 3.36463C17.4683 3.36463 18.0703 3.6545 18.0703 4.39911H14.0703C14.0703 6.2102 15.6224 7.36463 17.1313 7.36463V3.36463ZM18.0703 4.39911C18.0703 5.14372 17.4683 5.43359 17.1313 5.43359V1.43359C15.6224 1.43359 14.0703 2.58802 14.0703 4.39911H18.0703ZM17.1313 5.43359C16.7943 5.43359 16.1923 5.14372 16.1923 4.39911H20.1923C20.1923 2.58802 18.6402 1.43359 17.1313 1.43359V5.43359Z" fill="white" mask="url(#path-3-inside-2_1621_7491)"/> </svg>