
<svg version="1.1" id="Layer_1" xmlns="http://www.w3.org/2000/svg" xmlns:xlink="http://www.w3.org/1999/xlink" x="0px" y="0px"
	 width="100%" viewBox="0 0 311 358" enable-background="new 0 0 311 358" xml:space="preserve">
<path  opacity="1.000000" stroke="none" 
	d="
M1.000000,218.000000 
	C1.000000,211.645599 1.000000,205.291214 1.468657,198.469269 
	C43.739933,198.001709 85.542549,198.001709 127.595741,198.001709 
	C121.873123,192.080490 116.515282,186.536713 111.097168,180.652145 
	C110.222946,179.593826 109.408997,178.876312 108.333435,177.903961 
	C103.841553,173.401764 99.781967,168.960922 95.296036,165.003342 
	C93.530334,163.445602 90.825455,162.164749 88.525894,162.127197 
	C73.203194,161.876953 57.874435,161.997391 42.547646,161.997375 
	C40.787594,161.997375 39.027546,161.997375 37.002659,161.997375 
	C37.002659,146.188721 37.155544,131.046356 36.894619,115.911118 
	C36.829796,112.150810 38.376587,110.470894 41.361820,108.836723 
	C51.503345,103.285057 61.545311,97.548225 71.561203,91.770988 
	C99.198067,75.829819 126.827065,59.874443 154.368927,43.770359 
	C156.382034,42.593269 157.486572,42.581535 159.363434,43.772324 
	C164.445587,46.996746 169.687378,49.973206 174.906296,52.977760 
	C190.990097,62.237324 207.114059,71.427315 223.182205,80.713913 
	C239.394745,90.083961 255.457291,99.720894 271.828796,108.802437 
	C275.190735,110.667374 276.140198,112.483437 276.064758,115.990677 
	C275.865692,125.243263 275.997375,134.502960 275.997375,143.850113 
	C281.993408,143.850113 287.303436,143.850113 292.887756,143.902954 
	C293.904694,143.920532 294.647278,143.885269 295.892029,143.908752 
	C301.596130,143.978317 306.798065,143.989166 312.000000,144.000000 
	C312.000000,149.688034 312.000000,155.376083 311.531342,161.530975 
	C268.777954,161.997833 226.493195,161.997833 184.208450,161.997833 
	C183.985138,162.473602 183.761826,162.949371 183.538498,163.425125 
	C189.078491,168.477951 194.618484,173.530777 200.103210,178.942780 
	C199.557327,182.738190 202.237915,181.777191 204.102020,182.433609 
	C208.359879,186.852844 212.314606,191.165802 216.696045,194.989899 
	C218.474197,196.541885 221.168549,197.835083 223.467804,197.871521 
	C239.129440,198.119720 254.796890,198.001480 270.462463,198.001495 
	C272.222137,198.001495 273.981812,198.001495 275.995178,198.001495 
	C275.995178,214.657471 276.051575,230.637482 275.883301,246.615128 
	C275.870422,247.834534 274.531342,249.476730 273.362152,250.178619 
	C263.309296,256.213928 253.168869,262.104279 243.024933,267.986725 
	C229.219360,275.992584 215.386795,283.951874 201.567383,291.933838 
	C187.323853,300.160736 173.111343,308.442566 158.786575,316.525513 
	C157.591507,317.199829 155.327728,317.107086 154.098541,316.415039 
	C144.595352,311.064880 135.247147,305.440552 125.808960,299.973602 
	C97.619469,283.645264 69.474686,267.237213 41.125309,251.190887 
	C37.748142,249.279343 36.869728,247.422119 36.942284,243.964737 
	C37.122467,235.378677 37.001526,226.786316 37.001526,218.162643 
	C31.127625,218.162643 25.977787,218.162643 20.525036,218.104660 
	C19.408880,218.083572 18.595636,218.120483 17.269312,218.099304 
	C11.504154,218.027496 6.252077,218.013763 1.000000,218.000000 
M149.316376,288.999756 
	C157.600815,287.996948 165.971832,287.445923 174.148163,285.878998 
	C184.787186,283.840149 194.887115,280.106201 202.996353,272.475159 
	C211.851669,264.142059 215.691681,253.708267 217.209412,241.679031 
	C219.154922,226.259109 215.717651,212.563629 207.371490,199.822449 
	C199.561646,187.899948 188.355423,179.489349 177.210632,171.050552 
	C164.291977,161.268616 150.084290,153.065582 139.261108,140.710251 
	C124.990570,124.419563 127.230049,104.908112 144.553970,91.756149 
	C155.727356,83.273560 167.965317,84.032509 180.776520,86.919342 
	C180.776520,83.933624 180.776520,81.166908 180.776520,77.677452 
	C172.949722,77.110405 165.283844,76.091743 157.623901,76.134605 
	C150.433426,76.174843 143.125809,76.720619 136.087097,78.129768 
	C119.778992,81.394646 106.799873,89.294868 99.809593,105.429871 
	C96.067307,114.067810 96.038399,122.913597 95.931458,131.964508 
	C95.814781,141.839310 99.194328,150.454025 104.170120,158.696732 
	C113.329811,173.870361 127.394058,184.094482 140.815887,194.906113 
	C152.697891,204.477386 165.561829,212.952118 174.806747,225.391479 
	C181.055084,233.798843 184.535553,243.302277 182.528564,253.877304 
	C179.473053,269.977081 162.577835,280.432037 148.390549,279.987915 
	C143.365433,279.830597 138.344681,279.533630 133.345886,279.301575 
	C132.609695,287.092834 132.575043,287.264893 139.432022,288.645660 
	C142.318558,289.226898 145.386124,288.909119 149.316376,288.999756 
M175.499451,95.000092 
	C169.333817,88.464699 159.849121,87.373116 152.003052,92.010384 
	C145.137314,96.068260 141.926300,104.499992 144.002151,113.044472 
	C145.768250,120.313957 151.962860,126.103943 158.902496,126.971527 
	C167.875244,128.093277 176.018021,124.172844 179.624908,116.660431 
	C182.200500,111.295975 181.873169,99.448586 175.499451,95.000092 
M135.386581,267.802643 
	C136.311798,268.754913 137.225616,269.718567 138.164078,270.657593 
	C143.976761,276.474060 154.699661,278.069275 161.341095,274.112213 
	C168.853455,269.636261 172.253647,260.639038 169.938843,252.072433 
	C165.900955,237.128967 146.125061,235.413483 138.430389,243.854599 
	C131.772736,251.158127 131.762817,258.723999 135.386581,267.802643 
z"/>
<path fill="#FEFEFD" opacity="1.000000" stroke="none" 
	d="
M1.000000,218.468658 
	C6.252077,218.013763 11.504154,218.027496 17.251633,218.555603 
	C17.735693,231.394028 17.831911,243.719742 17.640091,256.040985 
	C17.589895,259.265259 18.540316,261.083069 21.419611,262.736572 
	C65.137764,287.842682 108.800056,313.046448 152.395615,338.364777 
	C155.573761,340.210510 157.845779,340.102539 160.968033,338.290558 
	C204.427643,313.069611 247.949707,287.955963 291.523254,262.932343 
	C294.677460,261.120941 295.788971,259.060455 295.764221,255.437149 
	C295.601593,231.622696 295.685822,207.806610 295.668060,183.991058 
	C295.666870,182.386154 295.490143,180.781387 295.359894,178.583603 
	C263.372620,178.583603 231.765549,178.583603 200.158478,178.583603 
	C194.618484,173.530777 189.078491,168.477951 183.538498,163.425125 
	C183.761826,162.949371 183.985138,162.473602 184.208450,161.997833 
	C226.493195,161.997833 268.777954,161.997833 311.531342,161.998917 
	C312.000000,197.687561 312.000000,233.375122 311.662109,269.630920 
	C309.536591,271.312317 307.781616,272.482361 305.956329,273.529907 
	C285.795715,285.100220 265.591919,296.595673 245.464035,308.222595 
	C222.091431,321.723816 198.768127,335.310669 175.457214,348.918274 
	C169.902542,352.160736 164.482147,355.633270 159.000000,359.000000 
	C157.933334,359.000000 156.866653,359.000000 155.276062,358.665802 
	C154.286835,358.160461 153.783707,358.054260 153.361633,357.808777 
	C136.470047,347.984161 119.626747,338.075684 102.689079,328.331268 
	C85.890762,318.666992 68.967995,309.219238 52.155655,299.579132 
	C35.068256,289.781342 18.049059,279.864655 1.000000,270.000000 
	C1.000000,252.979111 1.000000,235.958206 1.000000,218.468658 
z"/>
<path fill="#FEFEFE" opacity="1.000000" stroke="none" 
	d="
M111.157440,180.992935 
	C116.515282,186.536713 121.873123,192.080490 127.595741,198.001709 
	C85.542549,198.001709 43.739933,198.001709 1.468657,198.000854 
	C1.000000,162.312439 1.000000,126.624878 1.364400,90.460800 
	C9.585366,85.419724 17.438148,80.848640 25.299276,76.291969 
	C41.885059,66.678062 58.452072,57.031487 75.070145,47.473694 
	C91.268623,38.157227 107.564636,29.009809 123.734413,19.644154 
	C134.233597,13.562946 144.583313,7.223659 155.000000,1.000000 
	C155.750000,1.000000 156.500000,1.000000 157.747040,1.332990 
	C159.123932,2.102761 160.030121,2.493763 160.879700,2.983078 
	C178.233505,12.977857 195.573349,22.996872 212.931839,32.983494 
	C226.625412,40.861622 240.351761,48.682762 254.043015,56.564903 
	C273.371918,67.692680 292.681915,78.853378 312.000000,90.000000 
	C312.000000,107.687561 312.000000,125.375122 312.000000,143.531342 
	C306.798065,143.989166 301.596130,143.978317 295.969360,143.455261 
	C295.585876,129.789642 295.775085,116.633209 295.505615,103.486183 
	C295.466156,101.561218 293.696625,98.901825 291.964417,97.893982 
	C248.107864,72.377571 204.134888,47.061344 160.244034,21.603668 
	C157.597870,20.068850 155.695145,20.039623 153.036652,21.581707 
	C109.289772,46.957569 65.498489,72.257278 21.638111,97.436348 
	C18.596888,99.182228 17.629957,101.117043 17.648996,104.502777 
	C17.783815,128.480698 17.714458,152.459732 17.733789,176.438385 
	C17.735193,178.179947 17.922483,179.921326 18.024157,181.676804 
	C19.238760,181.783676 19.895422,181.891754 20.552130,181.892014 
	C49.526337,181.903549 78.500565,181.916824 107.474701,181.869995 
	C108.702751,181.868011 109.929878,181.298203 111.157440,180.992935 
z"/>

<path fill="#FFFFFF" opacity="1.000000" stroke="none" 
	d="
M148.843887,288.999878 
	C145.386124,288.909119 142.318558,289.226898 139.432022,288.645660 
	C132.575043,287.264893 132.609695,287.092834 133.345886,279.301575 
	C138.344681,279.533630 143.365433,279.830597 148.390549,279.987915 
	C162.577835,280.432037 179.473053,269.977081 182.528564,253.877304 
	C184.535553,243.302277 181.055084,233.798843 174.806747,225.391479 
	C165.561829,212.952118 152.697891,204.477386 140.815887,194.906113 
	C127.394058,184.094482 113.329811,173.870361 104.170120,158.696732 
	C99.194328,150.454025 95.814781,141.839310 95.931458,131.964508 
	C96.038399,122.913597 96.067307,114.067810 99.809593,105.429871 
	C106.799873,89.294868 119.778992,81.394646 136.087097,78.129768 
	C143.125809,76.720619 150.433426,76.174843 157.623901,76.134605 
	C165.283844,76.091743 172.949722,77.110405 180.776520,77.677452 
	C180.776520,81.166908 180.776520,83.933624 180.776520,86.919342 
	C167.965317,84.032509 155.727356,83.273560 144.553970,91.756149 
	C127.230049,104.908112 124.990570,124.419563 139.261108,140.710251 
	C150.084290,153.065582 164.291977,161.268616 177.210632,171.050552 
	C188.355423,179.489349 199.561646,187.899948 207.371490,199.822449 
	C215.717651,212.563629 219.154922,226.259109 217.209412,241.679031 
	C215.691681,253.708267 211.851669,264.142059 202.996353,272.475159 
	C194.887115,280.106201 184.787186,283.840149 174.148163,285.878998 
	C165.971832,287.445923 157.600815,287.996948 148.843887,288.999878 
z"/>
<path fill="#FEFEFD" opacity="1.000000" stroke="none" 
	d="
M292.613464,143.850113 
	C287.303436,143.850113 281.993408,143.850113 275.997375,143.850113 
	C275.997375,134.502960 275.865692,125.243263 276.064758,115.990677 
	C276.140198,112.483437 275.190735,110.667374 271.828796,108.802437 
	C255.457291,99.720894 239.394745,90.083961 223.182205,80.713913 
	C207.114059,71.427315 190.990097,62.237324 174.906296,52.977760 
	C169.687378,49.973206 164.445587,46.996746 159.363434,43.772324 
	C157.486572,42.581535 156.382034,42.593269 154.368927,43.770359 
	C126.827065,59.874443 99.198067,75.829819 71.561203,91.770988 
	C61.545311,97.548225 51.503345,103.285057 41.361820,108.836723 
	C38.376587,110.470894 36.829796,112.150810 36.894619,115.911118 
	C37.155544,131.046356 37.002659,146.188721 37.002659,161.997375 
	C39.027546,161.997375 40.787594,161.997375 42.547646,161.997375 
	C57.874435,161.997391 73.203194,161.876953 88.525894,162.127197 
	C90.825455,162.164749 93.530334,163.445602 95.296036,165.003342 
	C99.781967,168.960922 103.841553,173.401764 107.857353,178.108459 
	C78.896919,178.567780 50.150944,178.567780 21.353586,178.567780 
	C21.153563,177.370102 20.953321,176.728500 20.952665,176.086700 
	C20.928324,152.263275 20.857296,128.439285 21.057877,104.617607 
	C21.071522,102.997147 22.779045,100.765144 24.312632,99.874458 
	C67.058762,75.047989 109.905510,50.394756 152.652084,25.569040 
	C155.710373,23.792891 157.834885,23.993473 160.778381,25.700581 
	C203.253403,50.334332 245.783569,74.873314 288.374329,99.306396 
	C291.396149,101.039925 292.432281,102.984558 292.405853,106.384338 
	C292.308777,118.871635 292.518951,131.361328 292.613464,143.850113 
z"/>
<path fill="#FEFEFE" opacity="1.000000" stroke="none" 
	d="
M20.827950,218.162643 
	C25.977787,218.162643 31.127625,218.162643 37.001526,218.162643 
	C37.001526,226.786316 37.122467,235.378677 36.942284,243.964737 
	C36.869728,247.422119 37.748142,249.279343 41.125309,251.190887 
	C69.474686,267.237213 97.619469,283.645264 125.808960,299.973602 
	C135.247147,305.440552 144.595352,311.064880 154.098541,316.415039 
	C155.327728,317.107086 157.591507,317.199829 158.786575,316.525513 
	C173.111343,308.442566 187.323853,300.160736 201.567383,291.933838 
	C215.386795,283.951874 229.219360,275.992584 243.024933,267.986725 
	C253.168869,262.104279 263.309296,256.213928 273.362152,250.178619 
	C274.531342,249.476730 275.870422,247.834534 275.883301,246.615128 
	C276.051575,230.637482 275.995178,214.657471 275.995178,198.001495 
	C273.981812,198.001495 272.222137,198.001495 270.462463,198.001495 
	C254.796890,198.001480 239.129440,198.119720 223.467804,197.871521 
	C221.168549,197.835083 218.474197,196.541885 216.696045,194.989899 
	C212.314606,191.165802 208.359879,186.852844 204.566681,182.352814 
	C233.845871,181.969193 262.791931,181.969193 291.892731,181.969193 
	C292.076233,183.302414 292.280609,184.097763 292.281372,184.893311 
	C292.303528,208.393188 292.381744,231.893829 292.156311,255.391510 
	C292.139435,257.149261 290.326874,259.573456 288.677368,260.532013 
	C245.775543,285.462830 202.776459,310.226166 159.832672,335.084991 
	C157.617050,336.367554 155.998322,336.632904 153.581696,335.230408 
	C110.521393,310.239655 67.400650,285.352875 24.242176,260.531952 
	C21.763809,259.106628 20.826275,257.517548 20.855005,254.660004 
	C20.977320,242.495544 20.858648,230.328644 20.827950,218.162643 
z"/>
<path fill="#F39147" opacity="1.000000" stroke="none" 
	d="
M20.525038,218.104660 
	C20.858648,230.328644 20.977320,242.495544 20.855005,254.660004 
	C20.826275,257.517548 21.763809,259.106628 24.242176,260.531952 
	C67.400650,285.352875 110.521393,310.239655 153.581696,335.230408 
	C155.998322,336.632904 157.617050,336.367554 159.832672,335.084991 
	C202.776459,310.226166 245.775543,285.462830 288.677368,260.532013 
	C290.326874,259.573456 292.139435,257.149261 292.156311,255.391510 
	C292.381744,231.893829 292.303528,208.393188 292.281372,184.893311 
	C292.280609,184.097763 292.076233,183.302414 291.892731,181.969193 
	C262.791931,181.969193 233.845871,181.969193 204.435120,182.049988 
	C202.237915,181.777191 199.557327,182.738190 200.103210,178.942780 
	C231.765549,178.583603 263.372620,178.583603 295.359894,178.583603 
	C295.490143,180.781387 295.666870,182.386154 295.668060,183.991058 
	C295.685822,207.806610 295.601593,231.622696 295.764221,255.437149 
	C295.788971,259.060455 294.677460,261.120941 291.523254,262.932343 
	C247.949707,287.955963 204.427643,313.069611 160.968033,338.290558 
	C157.845779,340.102539 155.573761,340.210510 152.395615,338.364777 
	C108.800056,313.046448 65.137764,287.842682 21.419611,262.736572 
	C18.540316,261.083069 17.589895,259.265259 17.640091,256.040985 
	C17.831911,243.719742 17.735693,231.394028 17.764713,218.613678 
	C18.595636,218.120483 19.408880,218.083572 20.525038,218.104660 
z"/>
<path fill="#F39045" opacity="1.000000" stroke="none" 
	d="
M292.887756,143.902954 
	C292.518951,131.361328 292.308777,118.871635 292.405853,106.384338 
	C292.432281,102.984558 291.396149,101.039925 288.374329,99.306396 
	C245.783569,74.873314 203.253403,50.334332 160.778381,25.700581 
	C157.834885,23.993473 155.710373,23.792891 152.652084,25.569040 
	C109.905510,50.394756 67.058762,75.047989 24.312632,99.874458 
	C22.779045,100.765144 21.071522,102.997147 21.057877,104.617607 
	C20.857296,128.439285 20.928324,152.263275 20.952665,176.086700 
	C20.953321,176.728500 21.153563,177.370102 21.353586,178.567780 
	C50.150944,178.567780 78.896919,178.567780 108.118973,178.363281 
	C109.408997,178.876312 110.222946,179.593826 111.097168,180.652145 
	C109.929878,181.298203 108.702751,181.868011 107.474701,181.869995 
	C78.500565,181.916824 49.526337,181.903549 20.552130,181.892014 
	C19.895422,181.891754 19.238760,181.783676 18.024157,181.676804 
	C17.922483,179.921326 17.735193,178.179947 17.733789,176.438385 
	C17.714458,152.459732 17.783815,128.480698 17.648996,104.502777 
	C17.629957,101.117043 18.596888,99.182228 21.638111,97.436348 
	C65.498489,72.257278 109.289772,46.957569 153.036652,21.581707 
	C155.695145,20.039623 157.597870,20.068850 160.244034,21.603668 
	C204.134888,47.061344 248.107864,72.377571 291.964417,97.893982 
	C293.696625,98.901825 295.466156,101.561218 295.505615,103.486183 
	C295.775085,116.633209 295.585876,129.789642 295.467224,143.396515 
	C294.647278,143.885269 293.904694,143.920532 292.887756,143.902954 
z"/>
<path fill="#F18534" opacity="1.000000" stroke="none" 
	d="
M175.756927,95.258972 
	C181.873169,99.448586 182.200500,111.295975 179.624908,116.660431 
	C176.018021,124.172844 167.875244,128.093277 158.902496,126.971527 
	C151.962860,126.103943 145.768250,120.313957 144.002151,113.044472 
	C141.926300,104.499992 145.137314,96.068260 152.003052,92.010384 
	C159.849121,87.373116 169.333817,88.464699 175.756927,95.258972 
z"/>
<path fill="#F18534" opacity="1.000000" stroke="none" 
	d="
M135.217133,267.458740 
	C131.762817,258.723999 131.772736,251.158127 138.430389,243.854599 
	C146.125061,235.413483 165.900955,237.128967 169.938843,252.072433 
	C172.253647,260.639038 168.853455,269.636261 161.341095,274.112213 
	C154.699661,278.069275 143.976761,276.474060 138.164078,270.657593 
	C137.225616,269.718567 136.311798,268.754913 135.217133,267.458740 
z"/>
</svg>